<svg xmlns="http://www.w3.org/2000/svg" viewBox="0 0 50 50"><defs><style>.cls-1{fill:#fff;}</style></defs><g id="Capa_2" data-name="Capa 2"><g id="Capa_1-2" data-name="Capa 1"><path class="cls-1" d="M50,17a1.16,1.16,0,0,0,0-.18l0-.11s0-.1,0-.15a.54.54,0,0,1-.05-.11s0-.09-.08-.14a.53.53,0,0,0-.06-.1l-.09-.13L49.49,16l-.11-.12-.08-.08-.13-.1-.09-.08,0,0L26.19.36a2.15,2.15,0,0,0-2.38,0L1,15.6l0,0-.1.08-.12.1a.3.3,0,0,0-.08.08L.51,16l-.07.09a1.13,1.13,0,0,0-.1.13l-.06.1c0,.05-.05.1-.07.14l0,.11a.88.88,0,0,0,0,.15,1,1,0,0,1,0,.1L0,17a.29.29,0,0,0,0,.09,2.46,2.46,0,0,0,0,.28V32.62a2.64,2.64,0,0,0,0,.28A.29.29,0,0,0,0,33a1.16,1.16,0,0,0,0,.18l0,.11.06.15a.31.31,0,0,0,0,.1,1,1,0,0,0,.07.15l.06.1.09.12.08.1.11.11a.3.3,0,0,0,.08.08l.12.11.1.07,0,0L23.81,49.64a2.15,2.15,0,0,0,2.38,0L49,34.4l0,0,.1-.08.12-.1.08-.08.11-.12.07-.09a1.13,1.13,0,0,0,.1-.13l.06-.1s.05-.09.07-.14l.05-.11a.88.88,0,0,0,0-.15s0-.07,0-.11L50,33a.29.29,0,0,0,0-.09,2.64,2.64,0,0,0,0-.28V17.38c0-.09,0-.18,0-.28A.29.29,0,0,0,50,17ZM25,30.08,17.4,25,25,19.92,32.6,25,25,30.08ZM22.85,16.19l-9.31,6.23L6,17.39,22.85,6.16v10ZM9.67,25,4.3,28.59V21.4L9.67,25Zm3.87,2.59,9.31,6.23v10L6,32.61l7.52-5Zm13.61,6.23,9.31-6.23,7.52,5L27.15,43.84v-10ZM40.33,25l5.37-3.59V28.6L40.33,25Zm-3.87-2.58-9.31-6.23v-10L44,17.39l-7.52,5Z"/></g></g></svg>