<svg xmlns="http://www.w3.org/2000/svg" viewBox="0 0 50 50"><defs><style>.cls-1{fill:#fff;}</style></defs><g id="Capa_2" data-name="Capa 2"><g id="Capa_1-2" data-name="Capa 1"><path class="cls-1" d="M42.6,42.6H35.19V31c0-2.77,0-6.33-3.85-6.33s-4.45,3-4.45,6.13V42.6H19.48V18.74H26.6V22h.1a7.77,7.77,0,0,1,7-3.85c7.51,0,8.9,4.94,8.9,11.36ZM11.12,15.48a4.3,4.3,0,1,1,3-1.26,4.3,4.3,0,0,1-3,1.26M14.83,42.6H7.41V18.74h7.42ZM46.3,0H3.69A3.65,3.65,0,0,0,0,3.61V46.39A3.64,3.64,0,0,0,3.69,50H46.3A3.67,3.67,0,0,0,50,46.39V3.6A3.66,3.66,0,0,0,46.3,0"/></g></g></svg>