<svg xmlns="http://www.w3.org/2000/svg" viewBox="0 0 50 50"><defs><style>.cls-1{fill:none;}.cls-2{fill:#fff;}</style></defs><g id="Capa_2" data-name="Capa 2"><g id="Capa_1-2" data-name="Capa 1"><path class="cls-1" d="M38.45,11A18.07,18.07,0,0,0,25.83,6.37a19.09,19.09,0,0,0-13.77,5.37A17.67,17.67,0,0,0,6.49,25a19.7,19.7,0,0,0,2,8.54,17.92,17.92,0,0,0,5.65,6.56,20.43,20.43,0,0,0,12.22,3.52,28.85,28.85,0,0,0,12.69-2.94l.28-.14-1.21-3.36-.35.19a27.1,27.1,0,0,1-11.43,2.77,16.14,16.14,0,0,1-9.71-2.8A14.57,14.57,0,0,1,12.13,32a16.66,16.66,0,0,1-1.58-7A15.1,15.1,0,0,1,25.87,9.61a14.4,14.4,0,0,1,10.2,3.71,12.2,12.2,0,0,1,4,9.41,12.57,12.57,0,0,1-1.63,6.43C37.34,31.08,36.11,32,34.76,32c-1,0-1.44-.58-1.44-1.75,0-.35,0-.74,0-1.15s.07-.84.13-1.29L35,15.59H31.43l-.33,2.59a7.68,7.68,0,0,0-6.32-3,9.32,9.32,0,0,0-7.1,3,10.5,10.5,0,0,0-2.82,7.56,10,10,0,0,0,2.52,7,8.37,8.37,0,0,0,6.42,2.77,8.75,8.75,0,0,0,6.39-2.94,4,4,0,0,0,4.06,2.83c2.49,0,4.66-1.29,6.51-3.85a15.19,15.19,0,0,0,2.75-9.12A14.81,14.81,0,0,0,38.45,11ZM28.32,29.42A5.63,5.63,0,0,1,24,31.5a3.79,3.79,0,0,1-3.13-1.56,6.34,6.34,0,0,1-1.21-4,6.89,6.89,0,0,1,1.51-4.6A4.77,4.77,0,0,1,25,19.53,5.12,5.12,0,0,1,28.72,21a4.86,4.86,0,0,1,1.47,3.61A7,7,0,0,1,28.32,29.42Z"/><path class="cls-2" d="M25,19.53a4.77,4.77,0,0,0-3.85,1.82A6.89,6.89,0,0,0,19.67,26a6.34,6.34,0,0,0,1.21,4A3.79,3.79,0,0,0,24,31.5a5.63,5.63,0,0,0,4.31-2.08,7,7,0,0,0,1.87-4.83A4.86,4.86,0,0,0,28.72,21,5.12,5.12,0,0,0,25,19.53Z"/><path class="cls-2" d="M25,0A25,25,0,1,0,50,25,25,25,0,0,0,25,0ZM40.76,31.57c-1.85,2.56-4,3.85-6.51,3.85a4,4,0,0,1-4.06-2.83,8.75,8.75,0,0,1-6.39,2.94,8.37,8.37,0,0,1-6.42-2.77,10,10,0,0,1-2.52-7,10.5,10.5,0,0,1,2.82-7.56,9.32,9.32,0,0,1,7.1-3,7.68,7.68,0,0,1,6.32,3l.33-2.59H35L33.48,27.84c-.06.45-.11.88-.13,1.29s0,.8,0,1.15c0,1.17.48,1.75,1.44,1.75,1.35,0,2.58-1,3.69-2.87a12.57,12.57,0,0,0,1.63-6.43,12.2,12.2,0,0,0-4-9.41,14.4,14.4,0,0,0-10.2-3.71A15.1,15.1,0,0,0,10.55,25a16.66,16.66,0,0,0,1.58,7,14.57,14.57,0,0,0,4.5,5.34,16.14,16.14,0,0,0,9.71,2.8,27.1,27.1,0,0,0,11.43-2.77l.35-.19,1.21,3.36-.28.14a28.85,28.85,0,0,1-12.69,2.94,20.43,20.43,0,0,1-12.22-3.52,17.92,17.92,0,0,1-5.65-6.56,19.7,19.7,0,0,1-2-8.54,17.67,17.67,0,0,1,5.57-13.27A19.09,19.09,0,0,1,25.83,6.37,18.07,18.07,0,0,1,38.45,11a14.81,14.81,0,0,1,5.06,11.46A15.19,15.19,0,0,1,40.76,31.57Z"/></g></g></svg>