<svg xmlns="http://www.w3.org/2000/svg" viewBox="0 0 50 50"><defs><style>.cls-1{fill:#fff;}</style></defs><g id="Capa_2" data-name="Capa 2"><g id="Capa_1-2" data-name="Capa 1"><path class="cls-1" d="M48.23,29.17a2.51,2.51,0,0,0,0,.27l-.09-.51c0,.08.09.16.13.24a23.67,23.67,0,0,0-14-26.09A23.3,23.3,0,0,0,25,1.22a23.92,23.92,0,0,0-4.47.42h0l.25.13-.5-.08.25-.05A14,14,0,0,0,1.76,20.8a2.17,2.17,0,0,1,0-.25l.09.49a1.83,1.83,0,0,1-.13-.24,24.36,24.36,0,0,0-.36,4.08A23.7,23.7,0,0,0,15.82,46.69,23.33,23.33,0,0,0,25,48.55a22.93,22.93,0,0,0,4.14-.37l-.24-.13.5.09-.26,0a14,14,0,0,0,19.08-19ZM25.11,39.38C16.72,39.38,13,35.24,13,32.15a2.64,2.64,0,0,1,2.78-2.71c3.59,0,2.66,5.17,9.36,5.17,3.43,0,5.32-1.87,5.32-3.78,0-1.14-.57-2.42-2.82-3L20.15,26c-6-1.51-7.1-4.77-7.1-7.83,0-6.35,6-8.74,11.57-8.74,5.17,0,11.25,2.86,11.25,6.67,0,1.64-1.41,2.59-3,2.59-3.06,0-2.5-4.25-8.67-4.25-3.06,0-4.76,1.39-4.76,3.38s2.42,2.61,4.52,3.09l5.52,1.23C35.51,23.48,37,27,37,30.36,37,35.52,33.09,39.38,25.11,39.38Zm3.8,8.67.24.13.26,0ZM48.19,29.44a2.51,2.51,0,0,1,0-.27c0-.08-.08-.16-.13-.24ZM1.8,20.55a2.17,2.17,0,0,0,0,.25,1.83,1.83,0,0,0,.13.24Zm19-18.78-.25-.13-.25.05Z"/></g></g></svg>