<svg xmlns="http://www.w3.org/2000/svg" viewBox="0 0 50 50"><defs><style>.cls-1{fill:none;}.cls-2{fill:#fff;}</style></defs><g id="Capa_2" data-name="Capa 2"><g id="Capa_1-2" data-name="Capa 1"><path class="cls-1" d="M35.1,13.79,10,23.62S8.84,24,8.94,24.78,10,25.87,10,25.87L16.31,28s1.9,6.25,2.28,7.44.67,1.21.67,1.21L20,29.8v-.06l0,0,3.88,3-3.89-3-.8,6.83a.72.72,0,0,0,.67-.09L24,32.84l6.36,4.87a1.65,1.65,0,0,0,2.34-.82l4.46-22.51C37.16,12.88,35.1,13.79,35.1,13.79Z"/><path class="cls-2" d="M42.68,7.32A25,25,0,1,0,50,25,25,25,0,0,0,42.68,7.32Zm-10,29.57a1.65,1.65,0,0,1-2.34.82L24,32.84l-4.07,3.71a.72.72,0,0,1-.67.09s-.3,0-.67-1.21S16.31,28,16.31,28L10,25.87s-1-.34-1.06-1.09S10,23.62,10,23.62L35.1,13.79s2.06-.91,2.06.59Z"/><polygon class="cls-2" points="23.95 32.8 20.07 29.76 20.04 29.74 20.04 29.8 19.26 36.64 20.06 29.81 23.95 32.8"/></g></g></svg>