<svg xmlns="http://www.w3.org/2000/svg" viewBox="0 0 50 45.88"><defs><style>.cls-1{fill:#fff;}</style></defs><g id="Capa_2" data-name="Capa 2"><g id="Capa_1-2" data-name="Capa 1"><g id="Capa_2-2" data-name="Capa 2"><g id="Capa_1-2-2" data-name="Capa 1-2"><path class="cls-1" d="M0,34.59v1.85a15.16,15.16,0,0,0,1.07,3.73,7.46,7.46,0,0,0,1.34,1.62c.55.51,1.08.79,1.62,1.32l.53.54c.55.53,1.08.53,2,1.06a10.19,10.19,0,0,0,4,1.07h2.68c.81-.26,2-.26,2.7-.54A48.38,48.38,0,0,0,28.51,40c.79-.48,1.56-1,2.33-1.46s1.5-1.05,2.23-1.6,1.46-1.15,2.15-1.74a14.43,14.43,0,0,1,2.15-2.13L38.44,32a42.13,42.13,0,0,0,6.27-7.34c.3-.45.59-.88.87-1.32s.55-.91.83-1.36c.69-1.16,1.32-2.37,1.89-3.59l.28-.79a18.84,18.84,0,0,0,1-3,14.59,14.59,0,0,0,.37-3.16,13.45,13.45,0,0,0-3-8.26c-.53-.54-.81-1.07-1.34-1.6a3.32,3.32,0,0,0-.28-.26s0,0,0,0S45,1.12,44.81,1a.7.7,0,0,1-.16-.1C44.44.77,44.22.65,44,.55L43.75.28C43.19.28,42.66,0,42.13,0H39.19a3.66,3.66,0,0,0-.5.16L38.3.39a2.79,2.79,0,0,0-1,1A99.09,99.09,0,0,0,33,11.48a3.29,3.29,0,0,0,.53,2.67c.54.53.81,1.34,1.35,1.87s1.87,2.13,1.87,2.13A5.09,5.09,0,0,1,37,19.48a.71.71,0,0,1,0,.21v0a1,1,0,0,1-.24.51,2.14,2.14,0,0,1-.28.32l-.27.53a29.74,29.74,0,0,1-5,6.26c-.54.53-1.35,1.06-1.88,1.6a21,21,0,0,1-3.59,2.82A32.53,32.53,0,0,1,21.51,34l-1.34.53a2.19,2.19,0,0,1-1.09.53H18.8a1.5,1.5,0,0,1-1.34-.81l-3.41-3.94-.61-.67a4,4,0,0,0-1.88-.54c-.27,0-.55.28-.81.28-2.7,1.32-7,3.2-7,3.2L.81,34.06A2.37,2.37,0,0,0,0,34.59Z"/><path class="cls-1" d="M0,34.59v1.95a15.16,15.16,0,0,0,1.07,3.73,7.71,7.71,0,0,0,1.34,1.62c.55.51,1.08.79,1.62,1.32l.53.54a19.52,19.52,0,0,0,2,1.06,10.19,10.19,0,0,0,4,1.07h2.68c.73-.26,1.9-.26,2.7-.54A46.67,46.67,0,0,0,28.51,40c.79-.48,1.56-1,2.33-1.46s1.5-1.05,2.23-1.6,1.46-1.15,2.15-1.74a14.43,14.43,0,0,1,2.15-2.13L38.44,32a42.13,42.13,0,0,0,6.27-7.34c.3-.45.59-.88.87-1.32s.55-.91.83-1.36c.69-1.16,1.32-2.37,1.89-3.59,0-.06.06-.1.08-.16l.28-.79a19,19,0,0,0,1-2.84A14.59,14.59,0,0,0,50,11.46,13.53,13.53,0,0,0,47,3.2c-.53-.54-.81-1.33-1.34-1.6a1.88,1.88,0,0,1-.36-.24s0,0,0,0S45,1.12,44.81,1a.7.7,0,0,1-.16-.1,3.88,3.88,0,0,0-.57-.36L43.82.26C43.27.26,42.74,0,42.21,0h-3a.07.07,0,0,0-.06,0,3.66,3.66,0,0,0-.5.16L38.3.39a2.79,2.79,0,0,0-1,1A99.09,99.09,0,0,0,33,11.48a3.29,3.29,0,0,0,.53,2.67c.54.53.81,1.34,1.35,1.87s1.87,2.13,1.87,2.13A5.09,5.09,0,0,1,37,19.48a.71.71,0,0,1,0,.21v0c-.12.22-.16.38-.24.51a2.14,2.14,0,0,1-.28.32l-.27.53a29.74,29.74,0,0,1-5,6.26c-.54.53-1.35,1.06-1.88,1.6a21,21,0,0,1-3.59,2.82A32.53,32.53,0,0,1,21.51,34l-1.34.53a2.19,2.19,0,0,1-1.09.53H18.8a1.5,1.5,0,0,1-1.34-.81l-3.41-3.94-.61-.67a4,4,0,0,0-1.88-.54c-.27,0-.55.28-.81.28-2.7,1.32-7,3.2-7,3.2L.81,34.06A2.37,2.37,0,0,0,0,34.59Z"/><path class="cls-1" d="M0,34.69v1.85a15.16,15.16,0,0,0,1.07,3.73,7.71,7.71,0,0,0,1.34,1.62c.55.51,1.08.79,1.62,1.32l.53.54a19.52,19.52,0,0,0,2,1.06,10.19,10.19,0,0,0,4,1.07h2.68c.73-.26,1.9-.26,2.7-.54A46.67,46.67,0,0,0,28.51,40c.79-.48,1.56-1,2.33-1.46s1.5-1.05,2.23-1.6,1.46-1.15,2.15-1.74a13.43,13.43,0,0,1,2.23-2.29l1.07-1.06a43.69,43.69,0,0,0,6.19-7.19c.3-.45.59-.88.87-1.32s.55-.91.83-1.36c.69-1.16,1.32-2.37,1.89-3.59,0-.06.06-.1.08-.16l.28-.79a19,19,0,0,0,1-2.84A14.59,14.59,0,0,0,50,11.46,13.53,13.53,0,0,0,47,3.2c-.53-.54-.81-1.33-1.34-1.6a1.88,1.88,0,0,1-.36-.24s0,0,0,0S45,1.12,44.81,1a.7.7,0,0,1-.16-.1,3.88,3.88,0,0,0-.57-.36L43.82.26C43.27.26,42.74,0,42.21,0h-3a.07.07,0,0,0-.06,0,3.66,3.66,0,0,0-.5.16L38.3.39a2.85,2.85,0,0,0-.93.93,99.09,99.09,0,0,0-4.3,10.14,3.29,3.29,0,0,0,.53,2.67c.54.53.54,1.08,1.34,1.87s1.6,1.88,1.88,2.13a1.14,1.14,0,0,1,.28,1.33c0,.09-.08.17-.1.23v0c-.12.22-.16.38-.24.51a.72.72,0,0,1-.2.3l-.27.53a29.89,29.89,0,0,1-5.11,6.42c-.54.53-1.35,1.06-1.88,1.59a20.53,20.53,0,0,1-3.59,2.83,35.18,35.18,0,0,1-4.2,2.25l-1.34.53a2.28,2.28,0,0,1-1.09.53H18.8a1.5,1.5,0,0,1-1.34-.81l-3.41-3.94-.61-.67a4,4,0,0,0-1.88-.54c-.27,0-.55.28-.81.28-2.7,1.32-7,3.2-7,3.2L.81,34.06A2.61,2.61,0,0,0,0,34.69Zm0,0v1.85a15.16,15.16,0,0,0,1.07,3.73,7.71,7.71,0,0,0,1.34,1.62c.55.51,1.08.79,1.62,1.32l.53.54a19.52,19.52,0,0,0,2,1.06,10.19,10.19,0,0,0,4,1.07h2.68c.73-.26,1.9-.26,2.7-.54A46.67,46.67,0,0,0,28.51,40c.79-.48,1.56-1,2.33-1.46s1.5-1.05,2.23-1.6,1.46-1.15,2.15-1.74a13.43,13.43,0,0,1,2.23-2.29l1.07-1.06a43.69,43.69,0,0,0,6.19-7.19c.3-.45.59-.88.87-1.32s.55-.91.83-1.36c.69-1.16,1.32-2.37,1.89-3.59,0-.06.06-.1.08-.16l.28-.79a19,19,0,0,0,1-2.84A14.59,14.59,0,0,0,50,11.46,13.53,13.53,0,0,0,47,3.2c-.53-.54-.81-1.33-1.34-1.6a1.88,1.88,0,0,1-.36-.24s0,0,0,0S45,1.12,44.81,1a.7.7,0,0,1-.16-.1,3.88,3.88,0,0,0-.57-.36L43.82.26C43.27.26,42.74,0,42.21,0h-3a.07.07,0,0,0-.06,0,3.66,3.66,0,0,0-.5.16L38.3.39a2.85,2.85,0,0,0-.93.93,99.09,99.09,0,0,0-4.3,10.14,3.29,3.29,0,0,0,.53,2.67c.54.53.54,1.08,1.34,1.87s1.6,1.88,1.88,2.13a1.14,1.14,0,0,1,.28,1.33c0,.09-.08.17-.1.23v0c-.12.22-.16.38-.24.51a.72.72,0,0,1-.2.3l-.27.53a29.89,29.89,0,0,1-5.11,6.42c-.54.53-1.35,1.06-1.88,1.59a20.53,20.53,0,0,1-3.59,2.83,35.18,35.18,0,0,1-4.2,2.25l-1.34.53a2.28,2.28,0,0,1-1.09.53H18.8a1.5,1.5,0,0,1-1.34-.81l-3.41-3.94-.61-.67a4,4,0,0,0-1.88-.54c-.27,0-.55.28-.81.28-2.7,1.32-7,3.2-7,3.2L.81,34.06A2.61,2.61,0,0,0,0,34.69Zm0,0v1.85a15.16,15.16,0,0,0,1.07,3.73,7.71,7.71,0,0,0,1.34,1.62c.55.51,1.08.79,1.62,1.32l.53.54a19.52,19.52,0,0,0,2,1.06,10.19,10.19,0,0,0,4,1.07h2.68c.73-.26,1.9-.26,2.7-.54A46.67,46.67,0,0,0,28.51,40c.79-.48,1.56-1,2.33-1.46s1.5-1.05,2.23-1.6,1.46-1.15,2.15-1.74a13.43,13.43,0,0,1,2.23-2.29l1.07-1.06a43.69,43.69,0,0,0,6.19-7.19c.3-.45.59-.88.87-1.32s.55-.91.83-1.36c.69-1.16,1.32-2.37,1.89-3.59,0-.06.06-.1.08-.16l.28-.79a19,19,0,0,0,1-2.84A14.59,14.59,0,0,0,50,11.46,13.53,13.53,0,0,0,47,3.2c-.53-.54-.81-1.33-1.34-1.6a1.88,1.88,0,0,1-.36-.24s0,0,0,0S45,1.12,44.81,1a.7.7,0,0,1-.16-.1,3.88,3.88,0,0,0-.57-.36L43.82.26C43.27.26,42.74,0,42.21,0h-3a.07.07,0,0,0-.06,0,3.66,3.66,0,0,0-.5.16L38.3.39a2.85,2.85,0,0,0-.93.93,99.09,99.09,0,0,0-4.3,10.14,3.29,3.29,0,0,0,.53,2.67c.54.53.54,1.08,1.34,1.87s1.6,1.88,1.88,2.13a1.14,1.14,0,0,1,.28,1.33c0,.09-.08.17-.1.23v0c-.12.22-.16.38-.24.51a.72.72,0,0,1-.2.3l-.27.53a29.89,29.89,0,0,1-5.11,6.42c-.54.53-1.35,1.06-1.88,1.59a20.53,20.53,0,0,1-3.59,2.83,35.18,35.18,0,0,1-4.2,2.25l-1.34.53a2.28,2.28,0,0,1-1.09.53H18.8a1.5,1.5,0,0,1-1.34-.81l-3.41-3.94-.61-.67a4,4,0,0,0-1.88-.54c-.27,0-.55.28-.81.28-2.7,1.32-7,3.2-7,3.2L.81,34.06A2.61,2.61,0,0,0,0,34.69Zm0-.1v1.95a15.16,15.16,0,0,0,1.07,3.73,7.71,7.71,0,0,0,1.34,1.62c.55.51,1.08.79,1.62,1.32l.53.54a19.52,19.52,0,0,0,2,1.06,10.19,10.19,0,0,0,4,1.07h2.68c.73-.26,1.9-.26,2.7-.54A46.67,46.67,0,0,0,28.51,40c.79-.48,1.56-1,2.33-1.46s1.5-1.05,2.23-1.6,1.46-1.15,2.15-1.74a14.43,14.43,0,0,1,2.15-2.13L38.44,32a42.13,42.13,0,0,0,6.27-7.34c.3-.45.59-.88.87-1.32s.55-.91.83-1.36c.69-1.16,1.32-2.37,1.89-3.59,0-.06.06-.1.08-.16l.28-.79a19,19,0,0,0,1-2.84A14.59,14.59,0,0,0,50,11.46,13.53,13.53,0,0,0,47,3.2c-.53-.54-.81-1.33-1.34-1.6a1.88,1.88,0,0,1-.36-.24s0,0,0,0S45,1.12,44.81,1a.7.7,0,0,1-.16-.1,3.88,3.88,0,0,0-.57-.36L43.82.26C43.27.26,42.74,0,42.21,0h-3a.07.07,0,0,0-.06,0,3.66,3.66,0,0,0-.5.16L38.3.39a2.79,2.79,0,0,0-1,1A99.09,99.09,0,0,0,33,11.48a3.29,3.29,0,0,0,.53,2.67c.54.53.81,1.34,1.35,1.87s1.87,2.13,1.87,2.13A5.09,5.09,0,0,1,37,19.48a.71.71,0,0,1,0,.21v0c-.12.22-.16.38-.24.51a2.14,2.14,0,0,1-.28.32l-.27.53a29.74,29.74,0,0,1-5,6.26c-.54.53-1.35,1.06-1.88,1.6a21,21,0,0,1-3.59,2.82A32.53,32.53,0,0,1,21.51,34l-1.34.53a2.19,2.19,0,0,1-1.09.53H18.8a1.5,1.5,0,0,1-1.34-.81l-3.41-3.94-.61-.67a4,4,0,0,0-1.88-.54c-.27,0-.55.28-.81.28-2.7,1.32-7,3.2-7,3.2L.81,34.06A2.37,2.37,0,0,0,0,34.59Zm0,.1v1.85a15.16,15.16,0,0,0,1.07,3.73,7.71,7.71,0,0,0,1.34,1.62c.55.51,1.08.79,1.62,1.32l.53.54a19.52,19.52,0,0,0,2,1.06,10.19,10.19,0,0,0,4,1.07h2.68c.73-.26,1.9-.26,2.7-.54A46.67,46.67,0,0,0,28.51,40c.79-.48,1.56-1,2.33-1.46s1.5-1.05,2.23-1.6,1.46-1.15,2.15-1.74a13.43,13.43,0,0,1,2.23-2.29l1.07-1.06a43.69,43.69,0,0,0,6.19-7.19c.3-.45.59-.88.87-1.32s.55-.91.83-1.36c.69-1.16,1.32-2.37,1.89-3.59,0-.06.06-.1.08-.16l.28-.79a19,19,0,0,0,1-2.84A14.59,14.59,0,0,0,50,11.46,13.53,13.53,0,0,0,47,3.2c-.53-.54-.81-1.33-1.34-1.6a1.88,1.88,0,0,1-.36-.24s0,0,0,0S45,1.12,44.81,1a.7.7,0,0,1-.16-.1,3.88,3.88,0,0,0-.57-.36L43.82.26C43.27.26,42.74,0,42.21,0h-3a.07.07,0,0,0-.06,0,3.66,3.66,0,0,0-.5.16L38.3.39a2.85,2.85,0,0,0-.93.93,99.09,99.09,0,0,0-4.3,10.14,3.29,3.29,0,0,0,.53,2.67c.54.53.54,1.08,1.34,1.87s1.6,1.88,1.88,2.13a1.14,1.14,0,0,1,.28,1.33c0,.09-.08.17-.1.23v0c-.12.22-.16.38-.24.51a.72.72,0,0,1-.2.3l-.27.53a29.89,29.89,0,0,1-5.11,6.42c-.54.53-1.35,1.06-1.88,1.59a20.53,20.53,0,0,1-3.59,2.83,35.18,35.18,0,0,1-4.2,2.25l-1.34.53a2.28,2.28,0,0,1-1.09.53H18.8a1.5,1.5,0,0,1-1.34-.81l-3.41-3.94-.61-.67a4,4,0,0,0-1.88-.54c-.27,0-.55.28-.81.28-2.7,1.32-7,3.2-7,3.2L.81,34.06A2.61,2.61,0,0,0,0,34.69Zm0,0v1.85a15.16,15.16,0,0,0,1.07,3.73,7.71,7.71,0,0,0,1.34,1.62c.55.51,1.08.79,1.62,1.32l.53.54a19.52,19.52,0,0,0,2,1.06,10.19,10.19,0,0,0,4,1.07h2.68c.73-.26,1.9-.26,2.7-.54A46.67,46.67,0,0,0,28.51,40c.79-.48,1.56-1,2.33-1.46s1.5-1.05,2.23-1.6,1.46-1.15,2.15-1.74a13.43,13.43,0,0,1,2.23-2.29l1.07-1.06a43.69,43.69,0,0,0,6.19-7.19c.3-.45.59-.88.87-1.32s.55-.91.83-1.36c.69-1.16,1.32-2.37,1.89-3.59,0-.06.06-.1.08-.16l.28-.79a19,19,0,0,0,1-2.84A14.59,14.59,0,0,0,50,11.46,13.53,13.53,0,0,0,47,3.2c-.53-.54-.81-1.33-1.34-1.6a1.88,1.88,0,0,1-.36-.24s0,0,0,0S45,1.12,44.81,1a.7.7,0,0,1-.16-.1,3.88,3.88,0,0,0-.57-.36L43.82.26C43.27.26,42.74,0,42.21,0h-3a.07.07,0,0,0-.06,0,3.66,3.66,0,0,0-.5.16L38.3.39a2.85,2.85,0,0,0-.93.93,99.09,99.09,0,0,0-4.3,10.14,3.29,3.29,0,0,0,.53,2.67c.54.53.54,1.08,1.34,1.87s1.6,1.88,1.88,2.13a1.14,1.14,0,0,1,.28,1.33c0,.09-.08.17-.1.23v0c-.12.22-.16.38-.24.51a.72.72,0,0,1-.2.3l-.27.53a29.89,29.89,0,0,1-5.11,6.42c-.54.53-1.35,1.06-1.88,1.59a20.53,20.53,0,0,1-3.59,2.83,35.18,35.18,0,0,1-4.2,2.25l-1.34.53a2.28,2.28,0,0,1-1.09.53H18.8a1.5,1.5,0,0,1-1.34-.81l-3.41-3.94-.61-.67a4,4,0,0,0-1.88-.54c-.27,0-.55.28-.81.28-2.7,1.32-7,3.2-7,3.2L.81,34.16A2.23,2.23,0,0,0,0,34.69Z"/></g></g></g></g></svg>