<svg xmlns="http://www.w3.org/2000/svg" viewBox="0 0 50 40.63"><defs><style>.cls-1{fill:#fff;}</style></defs><g id="Capa_2" data-name="Capa 2"><g id="Capa_1-2" data-name="Capa 1"><path class="cls-1" d="M50,4.81a20.48,20.48,0,0,1-5.89,1.62A10.29,10.29,0,0,0,48.62.75,20.42,20.42,0,0,1,42.1,3.24a10.26,10.26,0,0,0-17.74,7,10.69,10.69,0,0,0,.26,2.34A29.16,29.16,0,0,1,3.48,1.88,10.25,10.25,0,0,0,6.66,15.57,10.13,10.13,0,0,1,2,14.29v.13a10.26,10.26,0,0,0,8.23,10.06,10.49,10.49,0,0,1-2.71.36,10.27,10.27,0,0,1-1.93-.19,10.29,10.29,0,0,0,9.59,7.13A20.6,20.6,0,0,1,2.45,36.17,21.94,21.94,0,0,1,0,36a29,29,0,0,0,15.72,4.6c18.87,0,29.19-15.63,29.19-29.18,0-.45,0-.89,0-1.33A20.85,20.85,0,0,0,50,4.81"/></g></g></svg>