<svg xmlns="http://www.w3.org/2000/svg" width="12.453" height="20" viewBox="0 0 12.453 20">
  <g id="Grupo_63" data-name="Grupo 63" transform="translate(-118.384 -53.864)">
    <g id="Grupo_60" data-name="Grupo 60" transform="translate(118.384 53.864)">
      <path id="Trazado_121" data-name="Trazado 121" d="M128.384,73.864h-7.547a2.456,2.456,0,0,1-2.453-2.453V56.317a2.456,2.456,0,0,1,2.453-2.453h7.547a2.456,2.456,0,0,1,2.453,2.453V71.411A2.456,2.456,0,0,1,128.384,73.864ZM120.837,55a1.322,1.322,0,0,0-1.321,1.321V71.411a1.322,1.322,0,0,0,1.321,1.321h7.547a1.323,1.323,0,0,0,1.321-1.321V56.317A1.322,1.322,0,0,0,128.384,55Z" transform="translate(-118.384 -53.864)" fill="#fff"/>
    </g>
    <g id="Grupo_61" data-name="Grupo 61" transform="translate(120.266 55.869)">
      <path id="Trazado_122" data-name="Trazado 122" d="M130.74,72.9h-6.047a1.322,1.322,0,0,1-1.321-1.321V60.5a1.322,1.322,0,0,1,1.321-1.321h6.047A1.322,1.322,0,0,1,132.06,60.5V71.581A1.322,1.322,0,0,1,130.74,72.9Zm-6.047-12.594a.189.189,0,0,0-.189.189V71.581a.189.189,0,0,0,.189.189h6.047a.189.189,0,0,0,.189-.189V60.5a.189.189,0,0,0-.189-.189Z" transform="translate(-123.372 -59.176)" fill="#fff"/>
    </g>
    <g id="Grupo_62" data-name="Grupo 62" transform="translate(123.667 70.182)">
      <circle id="Elipse_5" data-name="Elipse 5" cx="0.943" cy="0.943" r="0.943" fill="#fff"/>
    </g>
  </g>
</svg>
