<svg xmlns="http://www.w3.org/2000/svg" width="20" height="19.428" viewBox="0 0 20 19.428">
  <g id="Grupo_65" data-name="Grupo 65" transform="translate(3.842 -110.795)">
    <path id="Trazado_123" data-name="Trazado 123" d="M14.607,122.916c-.515-.425-2.929-1.121-7.125-1.121s-6.61.7-7.125,1.121c.515.425,2.929,1.121,7.125,1.121S14.092,123.341,14.607,122.916Z" transform="translate(-2.888 -7.563)" fill="none"/>
    <path id="Trazado_124" data-name="Trazado 124" d="M7.345,146.568c4.425,0,6.863-.773,7.187-1.187V142.75c-2.188.968-6.544,1.006-7.187,1.006s-5-.037-7.187-1.006v2.631C.482,145.8,2.92,146.568,7.345,146.568Z" transform="translate(-2.75 -21.97)" fill="none"/>
    <path id="Trazado_125" data-name="Trazado 125" d="M.158,129.75v2.631c.324.414,2.762,1.187,7.187,1.187s6.863-.773,7.187-1.187V129.75c-2.188.968-6.544,1.006-7.187,1.006S2.346,130.718.158,129.75Z" transform="translate(-2.75 -13.032)" fill="none"/>
    <path id="Trazado_126" data-name="Trazado 126" d="M17.339,114.8c-4.418,0-6.86.772-7.19,1.186v.007a34.457,34.457,0,0,1,4.066-.255c.864,0,8.437.067,8.437,2.371v10.953a4.208,4.208,0,0,0,1.876-.7V115.978C24.186,115.563,21.746,114.8,17.339,114.8Z" transform="translate(-9.618 -2.75)" fill="none"/>
    <path id="Trazado_127" data-name="Trazado 127" d="M7.345,156.756c-.642,0-5-.037-7.187-1.006V158.7c.343.415,2.784,1.181,7.187,1.181s6.844-.766,7.187-1.181V155.75C12.344,156.718,7.988,156.756,7.345,156.756Z" transform="translate(-2.75 -30.907)" fill="none"/>
    <path id="Trazado_128" data-name="Trazado 128" d="M7.721,110.8c-.864,0-8.437.067-8.437,2.371a.619.619,0,0,0,.058.26c-1.716.332-3.184.913-3.184,1.927v12.5c0,2.3,7.573,2.371,8.437,2.371s8.437-.067,8.437-2.371v-.27c2.1-.415,3.126-1.044,3.126-1.917v-12.5C16.158,110.862,8.584,110.8,7.721,110.8Zm-3.126,3.437c4.2,0,6.61.7,7.125,1.121-.515.425-2.929,1.121-7.125,1.121s-6.61-.7-7.125-1.121C-2.015,114.929.4,114.232,4.595,114.232Zm-7.187,6.548c2.188.968,6.545,1.006,7.187,1.006s5-.037,7.187-1.006v2.631c-.324.414-2.762,1.187-7.187,1.187s-6.863-.773-7.187-1.187Zm14.374-1.431c-.324.414-2.762,1.187-7.187,1.187s-6.863-.773-7.187-1.187v-2.631c2.188.968,6.545,1.006,7.187,1.006s5-.037,7.187-1.006Zm-7.187,9.624c-4.4,0-6.844-.766-7.187-1.181v-2.949c2.188.968,6.545,1.006,7.187,1.006s5-.037,7.187-1.006v2.949C11.439,128.207,9,128.973,4.595,128.973Zm8.437-2.667V115.353c0-2.3-7.573-2.371-8.437-2.371a34.457,34.457,0,0,0-4.066.255v-.007c.33-.414,2.773-1.186,7.19-1.186s6.847.768,7.187,1.183V125.6A4.207,4.207,0,0,1,13.032,126.306Z" transform="translate(0 0)" fill="#fff"/>
  </g>
</svg>
