<svg xmlns="http://www.w3.org/2000/svg" viewBox="0 0 934.83 333.24"><defs><style>.cls-1{fill:#fff;}</style></defs><g id="Capa_2" data-name="Capa 2"><g id="Capa_1-2" data-name="Capa 1"><path class="cls-1" d="M190.18,127.64a26.42,26.42,0,1,0-35.38,0,42.84,42.84,0,0,0-25.1,39V173h6.42c5,0,10.52,1.91,16.3,3.93,6.55,2.29,13.32,4.66,20.55,4.66s13.72-2.38,20.12-4.68c5.61-2,10.91-3.91,15.78-3.91h6.42v-6.42A42.84,42.84,0,0,0,190.18,127.64Zm-17.69-33.2A13.59,13.59,0,1,1,158.9,108,13.6,13.6,0,0,1,172.49,94.44Zm16.26,70.4c-5.61,2-10.91,3.92-15.78,3.92-5.05,0-10.52-1.91-16.31-3.94a91.61,91.61,0,0,0-13.57-4,30,30,0,0,1,58.81,0A89.94,89.94,0,0,0,188.75,164.84Z"/><path class="cls-1" d="M182.74.47H64.47L0,302.32l65.5-35.88,117.24-.09c73.3,0,132.94-59.64,132.94-132.94S256,.47,182.74.47Zm0,240.88-123.63.1L35.85,254.18,84.7,25.47h98a107.94,107.94,0,1,1,0,215.88Z"/><rect class="cls-1" x="335.45" y="108.08" width="27.02" height="155.36"/><path class="cls-1" d="M349,61.06A13.15,13.15,0,0,0,339.51,65a13.18,13.18,0,0,0,0,19,13.18,13.18,0,0,0,19,0,13.45,13.45,0,0,0-9.58-23Z"/><path class="cls-1" d="M493.76,109.94a93.3,93.3,0,0,0-30.9-5.24q-22.64,0-40.87,10.47a77.62,77.62,0,0,0-28.88,28.71q-10.64,18.24-10.64,41.88,0,23.3,10.64,41.71A77.28,77.28,0,0,0,422,256.35q18.24,10.47,40.87,10.47a93.3,93.3,0,0,0,30.9-5.24q15-5.24,23.13-14.69V213.12q-3.37,7.42-11.48,14a63.44,63.44,0,0,1-19.08,10.47,69.88,69.88,0,0,1-23.47,3.89,51.34,51.34,0,0,1-27.19-7.27,52.19,52.19,0,0,1-18.92-19.75q-6.92-12.5-6.92-28.71t6.92-28.88a50.76,50.76,0,0,1,18.92-19.76A52.44,52.44,0,0,1,462.86,130a69.88,69.88,0,0,1,23.47,3.89,65.84,65.84,0,0,1,19.08,10.3q8.1,6.42,11.48,14.18V124.63Q508.79,115.18,493.76,109.94Z"/><path class="cls-1" d="M640.07,110.27q-13.67-5.56-31.91-5.57-21.61,0-37,6.42T547,124l13.17,19.93a119.89,119.89,0,0,1,10.13-6.42A71.72,71.72,0,0,1,586,131a74.29,74.29,0,0,1,20.77-2.7,66.2,66.2,0,0,1,13.51,1.35,35.35,35.35,0,0,1,11.31,4.39,20.8,20.8,0,0,1,7.6,8.28q2.7,5.23,2.7,13.34v22.44a74.5,74.5,0,0,0-16-7.41q-11.32-3.89-28.2-3.88-28.71,0-44.75,13.67t-16.05,36.31q0,15.88,7.43,27a48.43,48.43,0,0,0,19.76,17.06,60.7,60.7,0,0,0,26.52,5.91,75.25,75.25,0,0,0,25.83-4.73,54.42,54.42,0,0,0,22-14.52,33.3,33.3,0,0,0,3.54-4.64v20.51h27V152q0-15.19-7.6-25.66T640.07,110.27Zm1.86,92.38A39.07,39.07,0,0,1,636,224.09a39.86,39.86,0,0,1-15.87,14.36,49,49,0,0,1-22.46,5.06,44.19,44.19,0,0,1-17.4-3.21,25.69,25.69,0,0,1-11.82-9.62,27,27,0,0,1-4.22-15.2,25.57,25.57,0,0,1,4-14.52q4.07-6.09,12.33-9.46t21.45-3.38a97.07,97.07,0,0,1,26.68,3.55,78,78,0,0,1,13.17,5.11Z"/><path class="cls-1" d="M764.44,106.9a53.89,53.89,0,0,0-15.71-2.2q-10.82,0-21.28,8.44A56.44,56.44,0,0,0,716,125.88v-17.8H689V263.44h27V168.87a82.13,82.13,0,0,1,2.2-19.93q2.19-8.77,7.93-13.84T742,130a28.75,28.75,0,0,1,11.14,1.86,48.36,48.36,0,0,1,9.8,5.91l14.86-22.29A30.51,30.51,0,0,0,764.44,106.9Z"/><path class="cls-1" d="M907.81,0V134.93a62.78,62.78,0,0,0-18.91-20.44q-14.53-9.78-34.12-9.79a77.81,77.81,0,0,0-38.5,9.79,73.33,73.33,0,0,0-28,27.87q-10.47,18.07-10.47,43.4,0,25,10.47,43.23a72.86,72.86,0,0,0,28,28,77.71,77.71,0,0,0,38.5,9.8q19.59,0,34.12-9.8a62.34,62.34,0,0,0,18.91-20.54v27h27V0Zm-7.43,216.16a50.88,50.88,0,0,1-18.91,18.91,47.31,47.31,0,0,1-23.31,6.42,55.55,55.55,0,0,1-26.34-6.42,48.22,48.22,0,0,1-19.42-18.91q-7.27-12.49-7.26-30.4t7.26-30.4a48.22,48.22,0,0,1,19.42-18.91A55.55,55.55,0,0,1,858.16,130a47.31,47.31,0,0,1,23.31,6.42,50.88,50.88,0,0,1,18.91,18.91q7.43,12.49,7.43,30.4T900.38,216.16Z"/><path class="cls-1" d="M559.23,303.48a14.36,14.36,0,0,0-3.11-2.19,26.48,26.48,0,0,0-3.18-1.4,27.47,27.47,0,0,1-5.21-2.3,7.87,7.87,0,0,1-2.73-2.48,5.5,5.5,0,0,1-.81-2.89,4.72,4.72,0,0,1,1.41-3.32,6,6,0,0,1,4.48-1.48,7.64,7.64,0,0,1,3.75.86,9.06,9.06,0,0,1,2.62,2.22,15.48,15.48,0,0,1,1.78,2.75l3.94-2.27a15.12,15.12,0,0,0-2.54-3.8,13,13,0,0,0-3.91-3,11.8,11.8,0,0,0-5.37-1.16,12.23,12.23,0,0,0-5.67,1.27,9.73,9.73,0,0,0-3.89,3.48,9.21,9.21,0,0,0-1.4,5,8.8,8.8,0,0,0,1,4.37,9.92,9.92,0,0,0,2.56,3,16.74,16.74,0,0,0,3.3,2c1.15.52,2.19.95,3.13,1.27a36.5,36.5,0,0,1,4.07,1.7,8.9,8.9,0,0,1,3.11,2.46,6.35,6.35,0,0,1,1.18,4,5.54,5.54,0,0,1-1.83,4.27,7,7,0,0,1-4.86,1.67,8.31,8.31,0,0,1-4-1,11,11,0,0,1-3.21-2.7,28.94,28.94,0,0,1-2.73-4l-3.67,2.48a20.84,20.84,0,0,0,3.22,4.67,15.51,15.51,0,0,0,4.58,3.51,12.88,12.88,0,0,0,10,.56A11.87,11.87,0,0,0,559,319a10,10,0,0,0,2.59-3.4,10.32,10.32,0,0,0,.94-4.48,9.87,9.87,0,0,0-.92-4.45A10.75,10.75,0,0,0,559.23,303.48Z"/><path class="cls-1" d="M581.44,297.08a9,9,0,0,0-4.51-1.08,7.88,7.88,0,0,0-4.56,1.35,9.23,9.23,0,0,0-2.83,3.17V279.27h-4.32v42.1h4.32V306.26a6.47,6.47,0,0,1,.78-3.19,5.72,5.72,0,0,1,2.21-2.21,6.64,6.64,0,0,1,3.32-.81,4.88,4.88,0,0,1,4,1.57,7,7,0,0,1,1.32,4.64v15.11h4.32V305.72a12.32,12.32,0,0,0-1.05-5.4A7.21,7.21,0,0,0,581.44,297.08Z"/><path class="cls-1" d="M604.62,296.89a13.55,13.55,0,0,0-5.1-.89,15.14,15.14,0,0,0-5.91,1,19,19,0,0,0-3.86,2.05l2.1,3.18c.4-.28.94-.63,1.62-1a11.37,11.37,0,0,1,2.51-1,11.82,11.82,0,0,1,3.32-.43,10,10,0,0,1,2.16.22,5.38,5.38,0,0,1,1.81.7,3.28,3.28,0,0,1,1.21,1.32,4.62,4.62,0,0,1,.43,2.13v3.6a11.58,11.58,0,0,0-2.56-1.2,14.14,14.14,0,0,0-4.51-.62,10.67,10.67,0,0,0-7.15,2.19,7.24,7.24,0,0,0-2.56,5.8,7.44,7.44,0,0,0,4.34,7,9.71,9.71,0,0,0,4.24,1,11.89,11.89,0,0,0,4.13-.76,8.68,8.68,0,0,0,3.51-2.32,5,5,0,0,0,.56-.74v3.28h4.32V303.56a6.77,6.77,0,0,0-1.21-4.1A7.7,7.7,0,0,0,604.62,296.89ZM604,315.08a6.41,6.41,0,0,1-2.54,2.3,7.81,7.81,0,0,1-3.59.81,7.14,7.14,0,0,1-2.78-.52,4,4,0,0,1-1.88-1.54,4.22,4.22,0,0,1-.68-2.42,4.14,4.14,0,0,1,.65-2.33,4.22,4.22,0,0,1,2-1.51,9.16,9.16,0,0,1,3.43-.54,15.44,15.44,0,0,1,4.26.57,12.33,12.33,0,0,1,2.1.82v.93A6.24,6.24,0,0,1,604,315.08Z"/><path class="cls-1" d="M622.32,296a5.4,5.4,0,0,0-3.4,1.35,9,9,0,0,0-1.83,2.07v-2.88h-4.32v24.83h4.32V306.26a12.93,12.93,0,0,1,.35-3.19,4.16,4.16,0,0,1,1.27-2.21,3.68,3.68,0,0,1,2.53-.81,4.61,4.61,0,0,1,1.79.3,8.14,8.14,0,0,1,1.56.94l2.38-3.56a5,5,0,0,0-2.14-1.38A8.75,8.75,0,0,0,622.32,296Z"/><path class="cls-1" d="M645.41,297.54a12.17,12.17,0,0,0-6.29-1.54,12.56,12.56,0,0,0-6.45,1.62,11.19,11.19,0,0,0-4.32,4.54,14.42,14.42,0,0,0-1.54,6.8,14.64,14.64,0,0,0,1.49,6.74,11.11,11.11,0,0,0,4.15,4.56,11.46,11.46,0,0,0,6.13,1.65,14.42,14.42,0,0,0,6.94-1.59,13,13,0,0,0,4.88-4.73l-3.51-2.21a9,9,0,0,1-3.29,3.37,8.89,8.89,0,0,1-4.48,1.11,8.2,8.2,0,0,1-4.32-1.08,6.87,6.87,0,0,1-2.7-3.13,11.06,11.06,0,0,1-.86-3.61h19.54c0-.08,0-.25,0-.52s0-.53,0-.78a15.37,15.37,0,0,0-1.4-6.8A10.22,10.22,0,0,0,645.41,297.54Zm-10.53,3.29a8.13,8.13,0,0,1,4.24-1.05,7.14,7.14,0,0,1,3.67.92,6.64,6.64,0,0,1,2.46,2.53,7.64,7.64,0,0,1,.85,3.14H631.41a10,10,0,0,1,.77-2.51A6.88,6.88,0,0,1,634.88,300.83Z"/><polygon class="cls-1" points="678.73 313.65 671.79 296.54 666.66 296.54 676.16 317.86 669.36 333.24 674.22 333.24 690.41 296.54 685.55 296.54 678.73 313.65"/><path class="cls-1" d="M708.65,297.67a13.66,13.66,0,0,0-13.09,0,12.48,12.48,0,0,0-4.62,4.59,14,14,0,0,0,0,13.36,12.41,12.41,0,0,0,4.62,4.62,13.66,13.66,0,0,0,13.09,0,12.46,12.46,0,0,0,4.58-4.62,14,14,0,0,0,0-13.36A12.52,12.52,0,0,0,708.65,297.67Zm.81,15.87a8.36,8.36,0,0,1-3,3.16,8.72,8.72,0,0,1-8.69,0,8.41,8.41,0,0,1-3-3.16,9.27,9.27,0,0,1-1.11-4.58,9.45,9.45,0,0,1,1.11-4.62,8.2,8.2,0,0,1,3-3.16,8.92,8.92,0,0,1,8.69,0,8.15,8.15,0,0,1,3,3.16,9.56,9.56,0,0,1,1.1,4.62A9.37,9.37,0,0,1,709.46,313.54Z"/><path class="cls-1" d="M733.79,311.65a6.53,6.53,0,0,1-.78,3.24,5.48,5.48,0,0,1-2.21,2.19,6.84,6.84,0,0,1-3.32.78,4.83,4.83,0,0,1-3.94-1.62,7,7,0,0,1-1.35-4.59V296.54h-4.32v15.65a10.37,10.37,0,0,0,2.32,7.07,7.84,7.84,0,0,0,6.21,2.65,8.22,8.22,0,0,0,4.32-1.11,8.62,8.62,0,0,0,3.07-3.32v3.89h4.32V296.54h-4.32Z"/><path class="cls-1" d="M752,296a5.4,5.4,0,0,0-3.4,1.35,9,9,0,0,0-1.83,2.07v-2.88h-4.32v24.83h4.32V306.26a12.93,12.93,0,0,1,.35-3.19,4.16,4.16,0,0,1,1.27-2.21,3.68,3.68,0,0,1,2.53-.81,4.52,4.52,0,0,1,1.78.3,7.89,7.89,0,0,1,1.57.94l2.37-3.56a4.9,4.9,0,0,0-2.13-1.38A8.75,8.75,0,0,0,752,296Z"/><path class="cls-1" d="M784.38,296a7.92,7.92,0,0,0-7.4,4.43v-3.89h-4.31v24.83H777V306.26a6.43,6.43,0,0,1,.79-3.24,5.54,5.54,0,0,1,2.21-2.19,6.82,6.82,0,0,1,3.32-.78,4.9,4.9,0,0,1,3.94,1.57,6.93,6.93,0,0,1,1.35,4.64v15.11h4.32V305.72a10.4,10.4,0,0,0-2.3-7.1A7.85,7.85,0,0,0,784.38,296Z"/><path class="cls-1" d="M813.69,297.54A12.17,12.17,0,0,0,807.4,296a12.56,12.56,0,0,0-6.45,1.62,11.19,11.19,0,0,0-4.32,4.54,14.42,14.42,0,0,0-1.54,6.8,14.64,14.64,0,0,0,1.49,6.74,11.11,11.11,0,0,0,4.15,4.56,11.46,11.46,0,0,0,6.13,1.65,14.42,14.42,0,0,0,6.94-1.59,13,13,0,0,0,4.88-4.73l-3.51-2.21a9,9,0,0,1-3.29,3.37,8.86,8.86,0,0,1-4.48,1.11,8.2,8.2,0,0,1-4.32-1.08,6.81,6.81,0,0,1-2.7-3.13,11.06,11.06,0,0,1-.86-3.61h19.54c0-.08,0-.25,0-.52s0-.53,0-.78a15.37,15.37,0,0,0-1.4-6.8A10.22,10.22,0,0,0,813.69,297.54Zm-10.53,3.29a8.11,8.11,0,0,1,4.24-1.05,7.14,7.14,0,0,1,3.67.92,6.64,6.64,0,0,1,2.46,2.53,7.64,7.64,0,0,1,.85,3.14H799.69a9.59,9.59,0,0,1,.78-2.51A6.8,6.8,0,0,1,803.16,300.83Z"/><polygon class="cls-1" points="828.14 287.91 823.82 287.91 823.82 296.54 819.77 296.54 819.77 300.59 823.82 300.59 823.82 321.37 828.14 321.37 828.14 300.59 832.19 300.59 832.19 296.54 828.14 296.54 828.14 287.91"/><polygon class="cls-1" points="859.27 312.79 852.04 294.65 845.29 312.68 839.08 296.54 834.22 296.54 845.02 323.26 852.09 305.18 859.59 323.26 870.39 296.54 865.53 296.54 859.27 312.79"/><path class="cls-1" d="M889.64,297.67a13.66,13.66,0,0,0-13.09,0,12.46,12.46,0,0,0-4.61,4.59,14,14,0,0,0,0,13.36,12.39,12.39,0,0,0,4.61,4.62,13.66,13.66,0,0,0,13.09,0,12.48,12.48,0,0,0,4.59-4.62,14,14,0,0,0,0-13.36A12.55,12.55,0,0,0,889.64,297.67Zm.81,15.87a8.41,8.41,0,0,1-3,3.16,8.39,8.39,0,0,1-11.71-3.16,9.27,9.27,0,0,1-1.11-4.58,9.45,9.45,0,0,1,1.11-4.62,8.06,8.06,0,0,1,3-3.16,8.92,8.92,0,0,1,8.69,0,8.2,8.2,0,0,1,3,3.16,9.45,9.45,0,0,1,1.11,4.62A9.27,9.27,0,0,1,890.45,313.54Z"/><path class="cls-1" d="M908.42,296a5.38,5.38,0,0,0-3.4,1.35,9,9,0,0,0-1.84,2.07v-2.88h-4.31v24.83h4.31V306.26a12.9,12.9,0,0,1,.36-3.19,4.21,4.21,0,0,1,1.26-2.21,3.72,3.72,0,0,1,2.54-.81,4.56,4.56,0,0,1,1.78.3,7.89,7.89,0,0,1,1.57.94l2.37-3.56a5,5,0,0,0-2.13-1.38A8.75,8.75,0,0,0,908.42,296Z"/><polygon class="cls-1" points="934.83 321.37 922.96 306.8 933.75 296.54 928.35 296.54 919.18 305.26 919.18 279.27 914.86 279.27 914.86 321.37 919.18 321.37 919.18 308.78 929.43 321.37 934.83 321.37"/></g></g></svg>