<svg xmlns="http://www.w3.org/2000/svg" width="20" height="16.001" viewBox="0 0 20 16.001">
  <g id="Grupo_53" data-name="Grupo 53" transform="translate(-0.001 -63.824)">
    <path id="Trazado_110" data-name="Trazado 110" d="M38.157,68.939c0-.011,0-.022,0-.033-.014-.149-.025-.288-.04-.429s-.04-.29-.055-.432c-.052-.365-.123-.73-.21-1.087-.01-.013,0-.032-.01-.048l-.075-.216a5.164,5.164,0,0,0-.271-.776,4,4,0,0,0-.464-.727,3.694,3.694,0,0,0-2.049-1.248c-.2-.024-.4-.145-.559-.114-.013,0-.026,0-.039,0s-.053-.006-.08-.006l-.165.021a.2.2,0,0,1-.052.006h0a1.087,1.087,0,0,0-.176.02l-.1-.013a1.675,1.675,0,0,1-.28.159.735.735,0,0,0-.074.042c-.01.007-.023.01-.032.018l-.014.011,0,0-.627.5v0s-.005,0-.006.006a.952.952,0,0,0-.079.12l-.032.1,0,.01a.745.745,0,0,0-.04.166c0,.008,0,.015-.006.023h0a.775.775,0,0,0,0,.192c.083.376.181.749.28,1.122.157.592.327,1.18.524,1.76a.886.886,0,0,0,.1.165.9.9,0,0,0,.468.316c.205.021.4.147.606.168s.762.135.762.135a1.376,1.376,0,0,1,.28.241.186.186,0,0,1,.034.043.274.274,0,0,1,.038.148.563.563,0,0,1-.005.116l.033.159a8.109,8.109,0,0,1,0,2.19c-.024.2-.106.456-.126.662a5.691,5.691,0,0,1-.284,1.213,8.835,8.835,0,0,1-.514,1.205l-.2.342a.6.6,0,0,1-.142.3l-.058.046a.41.41,0,0,1-.424.056l-1.4-.257-.244-.038a1.068,1.068,0,0,0-.259.072,1.091,1.091,0,0,0-.234.133.265.265,0,0,0-.063.1.261.261,0,0,1-.062.1c-.35.742-.946,1.876-.946,1.876l-.374.816a.643.643,0,0,0-.082.251l.017.022h0l.13.162.168.21h0l.017.022a4.166,4.166,0,0,0,.864.612,2.128,2.128,0,0,0,.562.116c.2.014.365-.016.57,0l.2.024a5.309,5.309,0,0,0,.607-.116,2.782,2.782,0,0,0,1.034-.454l.571-.458c.111-.18.36-.379.483-.575q.28-.376.532-.77a12.727,12.727,0,0,0,1.236-2.512c.086-.236.162-.479.248-.708a7.08,7.08,0,0,0,.2-.722c.062-.242.115-.493.162-.737a3.934,3.934,0,0,1,.095-.82l.045-.41A11.492,11.492,0,0,0,38.157,68.939Z" transform="translate(-18.193)" fill="#fff"/>
    <path id="Trazado_111" data-name="Trazado 111" d="M7.789,78.4l-.374-.816s-.6-1.134-.946-1.876a.261.261,0,0,1-.062-.1.265.265,0,0,0-.063-.1,1.091,1.091,0,0,0-.234-.133,1.073,1.073,0,0,0-.259-.072l-.244.038-1.4.257a.408.408,0,0,1-.423-.056L3.728,75.5a.6.6,0,0,1-.142-.3l-.2-.342a8.835,8.835,0,0,1-.514-1.205,5.692,5.692,0,0,1-.284-1.213c-.02-.206-.1-.458-.126-.662a8.109,8.109,0,0,1,0-2.19l.033-.159a.563.563,0,0,1-.005-.116.274.274,0,0,1,.038-.148.186.186,0,0,1,.034-.043,1.387,1.387,0,0,1,.28-.241s.556-.114.762-.135.4-.147.606-.168a.9.9,0,0,0,.468-.316.885.885,0,0,0,.1-.165c.2-.58.367-1.168.524-1.76.1-.372.2-.745.28-1.122a.775.775,0,0,0,0-.192h0c0-.008,0-.015-.006-.023a.745.745,0,0,0-.04-.166l0-.01-.032-.1a.953.953,0,0,0-.079-.12s0,0-.006-.006v0L4.8,64.1l0,0-.014-.011c-.009-.008-.022-.011-.032-.018s-.048-.029-.074-.042a1.646,1.646,0,0,1-.28-.159l-.1.013a1.087,1.087,0,0,0-.176-.02h0a.2.2,0,0,1-.052-.006l-.165-.021c-.027,0-.053,0-.08.006s-.026,0-.039,0c-.16-.032-.354.089-.559.114A3.693,3.693,0,0,0,1.165,65.19a4,4,0,0,0-.464.727,5.164,5.164,0,0,0-.271.776l-.075.216c-.006.016,0,.035-.01.048-.087.357-.158.722-.21,1.087-.016.142-.04.29-.055.432s-.026.28-.04.429c0,.011,0,.022,0,.033a11.492,11.492,0,0,0,.085,2.6l.045.41a3.934,3.934,0,0,1,.095.82c.046.244.1.5.162.737a7.081,7.081,0,0,0,.2.722c.086.229.162.472.248.708A12.727,12.727,0,0,0,2.11,77.452q.251.394.532.77c.123.2.372.4.483.575l.571.458a2.782,2.782,0,0,0,1.034.454,5.309,5.309,0,0,0,.607.116l.2-.024c.205-.021.366.01.57,0a2.121,2.121,0,0,0,.562-.116,4.158,4.158,0,0,0,.864-.612l.017-.022h0l.168-.21.13-.162h0l.017-.022A.643.643,0,0,0,7.789,78.4Z" transform="translate(0 0)" fill="#fff"/>
    <path id="Trazado_112" data-name="Trazado 112" d="M22.849,83.347a.6.6,0,0,0-.929-.5A3.54,3.54,0,0,1,17.5,82.4h.843a.6.6,0,1,0,0-1.2H16.077a.6.6,0,0,0-.6.6V84.06a.6.6,0,0,0,1.2,0v-.788a4.741,4.741,0,0,0,5.9.578A.6.6,0,0,0,22.849,83.347Z" transform="translate(-9.285 -10.423)" fill="#fff"/>
    <path id="Trazado_113" data-name="Trazado 113" d="M16.405,71.294a3.541,3.541,0,0,1,4.423.448h-.843a.6.6,0,1,0,0,1.2h2.263a.6.6,0,0,0,.6-.6V70.079a.6.6,0,0,0-1.2,0v.788a4.741,4.741,0,0,0-5.9-.577.6.6,0,1,0,.657,1Z" transform="translate(-9.285 -3.393)" fill="#fff"/>
  </g>
</svg>
