<svg xmlns="http://www.w3.org/2000/svg" width="17.916" height="20" viewBox="0 0 17.916 20">
  <g id="Grupo_47" data-name="Grupo 47" transform="translate(-59.565 -1.267)">
    <path id="Trazado_102" data-name="Trazado 102" d="M78.409,21.522a25.624,25.624,0,0,1-2.051-3.468l-2.96-.379a.832.832,0,1,1,.211-1.65l1.925.246a52.569,52.569,0,0,1-2.518-7.517c-.993,2.154-2.191,5.888-.738,9.37A5.3,5.3,0,0,0,78.409,21.522Z" transform="translate(-7.03 -4.372)" fill="none"/>
    <path id="Trazado_103" data-name="Trazado 103" d="M79.884,11l.467-1.2a.832.832,0,0,1,1.551.6l-1.144,2.936c.392.963.787,1.825,1.178,2.6l2.011-2.871a.832.832,0,0,1,1.363.955l-2.479,3.538a20.045,20.045,0,0,0,1.206,1.8,5.4,5.4,0,0,0,2.272-7.007c-1.616-3.872-5.758-5.633-7.875-6.3C78.9,7.906,79.383,9.546,79.884,11Z" transform="translate(-11.019 -2.797)" fill="none"/>
    <path id="Trazado_104" data-name="Trazado 104" d="M66.057,21.951a12.006,12.006,0,0,1-.328-7.741,16.639,16.639,0,0,0-2.145.416c-.042,1.754.141,7.246,3.812,10.256a5.287,5.287,0,0,0,3.286,1.339A6.836,6.836,0,0,1,66.057,21.951Z" transform="translate(-2.344 -7.558)" fill="none"/>
    <path id="Trazado_105" data-name="Trazado 105" d="M76.541,19.626a6.309,6.309,0,0,1-2.432-1.77A7,7,0,0,0,76.825,8.92C74.274,2.807,66.751,1.338,66.432,1.278h-.005a.855.855,0,0,0-.207-.009c-.022,0-.044,0-.067.008s-.04,0-.06.007a.8.8,0,0,0-.1.034c-.015.005-.03.009-.045.015a.835.835,0,0,0-.178.107c-.013.01-.024.021-.036.032a.824.824,0,0,0-.125.136c-.006.007-.014.012-.019.02a17.261,17.261,0,0,0-1.648,3.29,16.94,16.94,0,0,0-3.778.733.831.831,0,0,0-.556.709c-.031.328-.689,8.089,4.388,12.25a6.857,6.857,0,0,0,4.4,1.738,7.3,7.3,0,0,0,4.3-1.567,7.607,7.607,0,0,0,3.472,2.466.832.832,0,0,0,.374-1.621ZM65.987,4.382A52.569,52.569,0,0,0,68.5,11.9l-1.925-.246a.832.832,0,1,0-.211,1.65l2.96.379a25.624,25.624,0,0,0,2.051,3.468,5.3,5.3,0,0,1-6.13-3.4C63.8,10.27,64.993,6.536,65.987,4.382Zm9.3,5.18a5.4,5.4,0,0,1-2.272,7.007,20.046,20.046,0,0,1-1.206-1.8l2.479-3.538a.832.832,0,0,0-1.363-.955l-2.011,2.871c-.391-.772-.786-1.634-1.178-2.6l1.144-2.936a.832.832,0,0,0-1.551-.6l-.467,1.2c-.5-1.459-.989-3.1-1.45-4.947C69.532,3.928,73.674,5.69,75.29,9.562ZM65.052,17.324c-3.672-3.009-3.854-8.5-3.812-10.256a16.639,16.639,0,0,1,2.145-.416,12.006,12.006,0,0,0,.328,7.741,6.836,6.836,0,0,0,4.624,4.27A5.287,5.287,0,0,1,65.052,17.324Z" fill="#fff"/>
  </g>
</svg>
