<svg xmlns="http://www.w3.org/2000/svg" width="20" height="20" viewBox="0 0 20 20">
  <g id="Grupo_26" data-name="Grupo 26" transform="translate(-739.266 -1170.401)">
    <g id="Grupo_23" data-name="Grupo 23" transform="translate(739.266 1170.401)">
      <path id="Trazado_51" data-name="Trazado 51" d="M757.6,1174.4H740.932a2.033,2.033,0,0,1,0-4H757.6a2.033,2.033,0,0,1,0,4Z" transform="translate(-739.266 -1170.401)" fill="#fff"/>
    </g>
    <g id="Grupo_24" data-name="Grupo 24" transform="translate(739.266 1178.401)">
      <path id="Trazado_52" data-name="Trazado 52" d="M757.6,1190.4H740.932a2.033,2.033,0,0,1,0-4H757.6a2.033,2.033,0,0,1,0,4Z" transform="translate(-739.266 -1186.401)" fill="#fff"/>
    </g>
    <g id="Grupo_25" data-name="Grupo 25" transform="translate(739.266 1186.401)">
      <path id="Trazado_53" data-name="Trazado 53" d="M757.6,1206.4H740.932a2.033,2.033,0,0,1,0-4H757.6a2.033,2.033,0,0,1,0,4Z" transform="translate(-739.266 -1202.401)" fill="#fff"/>
    </g>
  </g>
</svg>
