<svg xmlns="http://www.w3.org/2000/svg" width="20" height="20" viewBox="0 0 20 20">
  <g id="Grupo_54" data-name="Grupo 54" transform="translate(-57.783 -55.363)">
    <path id="Trazado_114" data-name="Trazado 114" d="M74.835,66.087h-11.9a1.185,1.185,0,0,0-1.19,1.178V79.048a1.185,1.185,0,0,0,1.19,1.178h11.9a1.185,1.185,0,0,0,1.19-1.178V67.265A1.185,1.185,0,0,0,74.835,66.087ZM63.509,68.476a.789.789,0,0,1,.793-.786h3.964a.789.789,0,0,1,.793.786V72.4a.79.79,0,0,1-.793.786H64.3a.79.79,0,0,1-.793-.786Zm10.4,10.287H64.161a.785.785,0,1,1,0-1.571h9.747a.785.785,0,1,1,0,1.571Zm0-2.547H64.161a.785.785,0,1,1,0-1.571h9.747a.785.785,0,1,1,0,1.571Zm0-5.106H70.739a.785.785,0,1,1,0-1.571h3.169a.785.785,0,1,1,0,1.571Z" transform="translate(-2.38 -6.434)" fill="none"/>
    <rect id="Rectángulo_22" data-name="Rectángulo 22" width="2.377" height="2.355" transform="translate(62.716 62.827)" fill="none"/>
    <path id="Trazado_115" data-name="Trazado 115" d="M81.22,59.291h-11.9a1.184,1.184,0,0,0-1.186,1.147h10.53a2.766,2.766,0,0,1,2.776,2.749V73.408a1.182,1.182,0,0,0,.966-1.156V60.469A1.185,1.185,0,0,0,81.22,59.291Z" transform="translate(-6.212 -2.357)" fill="none"/>
    <path id="Trazado_116" data-name="Trazado 116" d="M76.335,93.849H66.588a.785.785,0,1,0,0,1.571h9.747a.785.785,0,1,0,0-1.571Z" transform="translate(-4.807 -23.092)" fill="#fff"/>
    <path id="Trazado_117" data-name="Trazado 117" d="M76.335,87.482H66.588a.785.785,0,1,0,0,1.571h9.747a.785.785,0,1,0,0-1.571Z" transform="translate(-4.807 -19.271)" fill="#fff"/>
    <path id="Trazado_118" data-name="Trazado 118" d="M86.2,74.717H83.034a.785.785,0,1,0,0,1.571H86.2a.785.785,0,1,0,0-1.571Z" transform="translate(-14.675 -11.612)" fill="#fff"/>
    <path id="Trazado_119" data-name="Trazado 119" d="M66.942,75.592h3.964a.79.79,0,0,0,.793-.786V70.881a.789.789,0,0,0-.793-.786H66.942a.789.789,0,0,0-.793.786v3.926A.79.79,0,0,0,66.942,75.592Zm.793-3.926h2.378v2.355H67.735Z" transform="translate(-5.02 -8.839)" fill="#fff"/>
    <path id="Trazado_120" data-name="Trazado 120" d="M75.007,55.363h-11.9a2.765,2.765,0,0,0-2.774,2.73,2.762,2.762,0,0,0-2.554,2.738V72.614a2.766,2.766,0,0,0,2.776,2.749h11.9a2.766,2.766,0,0,0,2.775-2.729A2.762,2.762,0,0,0,77.783,69.9V58.113A2.766,2.766,0,0,0,75.007,55.363ZM73.645,72.614a1.185,1.185,0,0,1-1.19,1.178h-11.9a1.185,1.185,0,0,1-1.19-1.178V60.831a1.185,1.185,0,0,1,1.19-1.178h11.9a1.185,1.185,0,0,1,1.19,1.178ZM76.2,69.9a1.182,1.182,0,0,1-.966,1.156V60.831a2.766,2.766,0,0,0-2.776-2.749H61.925a1.184,1.184,0,0,1,1.186-1.147h11.9a1.185,1.185,0,0,1,1.19,1.178Z" transform="translate(0)" fill="#fff"/>
  </g>
</svg>
