<svg xmlns="http://www.w3.org/2000/svg" width="20" height="20" viewBox="0 0 20 20">
  <g id="Grupo_48" data-name="Grupo 48" transform="translate(-0.5 -0.5)">
    <path id="Trazado_106" data-name="Trazado 106" d="M19.273,12.928a.817.817,0,0,1,.816-.816h1.164A8.38,8.38,0,0,0,13.743,4.6V5.765a.816.816,0,1,1-1.633,0V4.6A8.38,8.38,0,0,0,4.6,12.111H5.765a.816.816,0,1,1,0,1.633H4.6a8.38,8.38,0,0,0,7.5,7.509V19.884a.816.816,0,0,1,1.633,0v1.371a8.38,8.38,0,0,0,7.522-7.511H20.09A.816.816,0,0,1,19.273,12.928Zm-3.528.816H12.927a.817.817,0,0,1-.577-.239L8.028,9.184A.816.816,0,0,1,9.183,8.029l4.083,4.082h2.48a.816.816,0,1,1,0,1.633Z" transform="translate(-2.427 -2.428)" fill="none"/>
    <path id="Trazado_107" data-name="Trazado 107" d="M10.5.5a10,10,0,1,0,10,10A10.012,10.012,0,0,0,10.5.5Zm.8,18.327V17.456a.816.816,0,0,0-1.633,0v1.369a8.38,8.38,0,0,1-7.5-7.509H3.338a.816.816,0,0,0,0-1.633H2.174a8.38,8.38,0,0,1,7.51-7.509V3.338a.816.816,0,0,0,1.633,0V2.174a8.38,8.38,0,0,1,7.51,7.509H17.662a.816.816,0,0,0,0,1.633h1.164A8.38,8.38,0,0,1,11.3,18.827Z" fill="#fff"/>
    <path id="Trazado_108" data-name="Trazado 108" d="M20.368,16.734h-2.48l-4.083-4.082a.816.816,0,0,0-1.154,1.155l4.322,4.321a.817.817,0,0,0,.577.239h2.818a.816.816,0,0,0,0-1.633Z" transform="translate(-7.05 -7.05)" fill="#fff"/>
  </g>
</svg>
