<svg xmlns="http://www.w3.org/2000/svg" width="22.3" height="20" viewBox="0 0 22.3 20">
  <path id="Trazado_100" data-name="Trazado 100" d="M125.833,3.311a5.773,5.773,0,0,0-.725.045,6.932,6.932,0,0,0-12.065,2.515,4.434,4.434,0,0,0-3.838,4.372,4.387,4.387,0,0,0,2.8,4.106.632.632,0,0,0,.231.044h7.492v1.356H117.2a2.521,2.521,0,0,0,0,5.042h6.3a2.521,2.521,0,1,0,0-5.042h-2.521V14.393h6.454a.632.632,0,0,0,.2-.033,5.672,5.672,0,0,0-1.806-11.049Zm-1.066,14.958a1.262,1.262,0,0,1-1.26,1.26h-6.3a1.26,1.26,0,0,1,0-2.521h6.3A1.262,1.262,0,0,1,124.766,18.269Zm2.566-5.137h-6.347V10.356l1.583,1.584a.63.63,0,0,0,.891-.891L120.813,8.4a.63.63,0,0,0-.891,0l-2.671,2.671a.63.63,0,1,0,.891.891l1.584-1.583v2.752h-7.367a3.15,3.15,0,0,1,1.2-6.038.63.63,0,0,0,.607-.505,5.671,5.671,0,0,1,9.566-2.879,5.609,5.609,0,0,0-2.067,1.428.63.63,0,1,0,.929.852,4.346,4.346,0,0,1,2.354-1.331l.028-.006a4.365,4.365,0,0,1,.856-.082,4.412,4.412,0,0,1,1.5,8.561Z" transform="translate(-109.205 -0.79)" fill="#fff"/>
</svg>
