<svg xmlns="http://www.w3.org/2000/svg" width="20" height="3.498" viewBox="0 0 20 3.498">
  <g id="Grupo_70" data-name="Grupo 70" transform="translate(-76.614 -133.858)">
    <g id="Grupo_66" data-name="Grupo 66" transform="translate(76.614 133.858)">
      <path id="Trazado_129" data-name="Trazado 129" d="M81.379,137.356h0a.264.264,0,0,1-.236-.145l-1.264-2.5-1.265,2.5a.264.264,0,0,1-.471,0l-1.5-2.97a.264.264,0,0,1,.471-.238l1.265,2.5,1.265-2.5a.264.264,0,0,1,.236-.145h0a.264.264,0,0,1,.236.145l1.265,2.5,1.265-2.5a.264.264,0,0,1,.471.238l-1.5,2.97A.264.264,0,0,1,81.379,137.356Z" transform="translate(-76.614 -133.858)" fill="#fff"/>
    </g>
    <g id="Grupo_67" data-name="Grupo 67" transform="translate(83.347 133.858)">
      <path id="Trazado_130" data-name="Trazado 130" d="M132.379,137.356h0a.264.264,0,0,1-.236-.145l-1.264-2.5-1.265,2.5a.264.264,0,0,1-.471,0l-1.5-2.97a.264.264,0,0,1,.471-.238l1.265,2.5,1.265-2.5a.264.264,0,0,1,.236-.145h0a.264.264,0,0,1,.236.145l1.265,2.5,1.265-2.5a.264.264,0,0,1,.471.238l-1.5,2.97A.264.264,0,0,1,132.379,137.356Z" transform="translate(-127.614 -133.858)" fill="#fff"/>
    </g>
    <g id="Grupo_68" data-name="Grupo 68" transform="translate(90.081 133.858)">
      <path id="Trazado_131" data-name="Trazado 131" d="M183.379,137.356h0a.264.264,0,0,1-.236-.145l-1.264-2.5-1.265,2.5a.264.264,0,0,1-.471,0l-1.5-2.97a.264.264,0,0,1,.471-.238l1.265,2.5,1.265-2.5a.264.264,0,0,1,.236-.145h0a.264.264,0,0,1,.236.145l1.265,2.5,1.265-2.5a.264.264,0,0,1,.471.238l-1.5,2.97A.264.264,0,0,1,183.379,137.356Z" transform="translate(-178.614 -133.858)" fill="#fff"/>
    </g>
    <g id="Grupo_69" data-name="Grupo 69" transform="translate(95.656 136.105)">
      <path id="Trazado_132" data-name="Trazado 132" d="M221.441,150.877a.66.66,0,0,1-.594,1.179" transform="translate(-220.847 -150.877)" fill="#fff"/>
    </g>
  </g>
</svg>
